<svg xmlns="http://www.w3.org/2000/svg" xmlns:xlink="http://www.w3.org/1999/xlink" viewBox="0,0,256,256" width="500px" height="500px" fill-rule="evenodd"><g fill="#ffd400" fill-rule="evenodd" stroke="none" stroke-width="1" stroke-linecap="butt" stroke-linejoin="miter" stroke-miterlimit="10" stroke-dasharray="" stroke-dashoffset="0" font-family="none" font-weight="none" font-size="none" text-anchor="none" style="mix-blend-mode: normal"><g transform="scale(5.12,5.12)"><path d="M38.17578,25.01953c0.68359,0.58203 1.52734,1.07813 2.45313,1.36719c1.52734,0.57813 2.65234,0.91016 3.05469,1.11719c0.76563,0.33203 1.25,0.53516 1.25,1.23828c0,0.78906 -0.92578,1.11719 -1.8125,1.16016c-1.24609,0 -2.49219,-0.62109 -2.45312,-1.94531h-2.21094c-0.04297,-1.11719 -0.40234,-2.15234 -1.08594,-2.9375c-0.64453,-0.78516 -1.60937,-1.40625 -2.97656,-1.77734c-1.37109,-0.45703 -3.25781,-0.95312 -4.02344,-1.20312c-0.52344,-0.16406 -0.72656,-0.49609 -0.72656,-0.90625c0,-0.58203 0.68359,-0.95312 1.48828,-0.99609c1.37109,0.04297 1.73047,0.82813 1.8125,1.41016h3.33594c0.16406,1.36328 0.84766,2.5625 1.89453,3.47266zM12.67188,24.48438c-0.64453,-0.53906 -1.44922,-0.95312 -2.49609,-1.24219c-1.36719,-0.45703 -3.25781,-0.95312 -4.01953,-1.19922c-0.52344,-0.16406 -0.72656,-0.49609 -0.72656,-0.91016c0,-0.57812 0.68359,-0.95312 1.48828,-0.99219c1.36719,0.03906 1.73047,0.82813 1.8125,1.40625h3.94141zM17.53906,20.30469h2.57422c1.00391,0 1.80859,0.82813 1.80859,1.90234c0,1.03516 -0.80469,1.85938 -1.80859,1.85938h-2.57422zM17.53906,28.20703h2.85547c2.53516,-0.04297 4.54297,-1.32422 5.55078,-3.1875c0.07813,-0.16406 0.16016,-0.28906 0.19922,-0.45312c0.16406,0.16406 0.32422,0.28906 0.48438,0.45313c0.68359,0.58203 1.52734,1.07813 2.49219,1.36719c1.48828,0.57813 2.65625,0.91016 3.05859,1.11719c0.76563,0.33203 1.24609,0.53516 1.24609,1.23828c0,0.78906 -0.92187,1.11719 -1.80859,1.16016c-1.24609,0 -2.49609,-0.62109 -2.45312,-1.94531h-4.94922c0.24219,3.39453 3.5,6 7.32031,6.04297c2.29297,0 4.42578,-0.70312 5.83203,-2.44141c1.32813,1.48828 2.98047,2.39844 5.23047,2.44141c3.62109,-0.04297 7.26953,-1.86328 7.34766,-5.79687c0,-1.23828 -0.30859,-2.3125 -1.03125,-3.18359c-0.68359,-0.78516 -1.64844,-1.40625 -3.01562,-1.77734c-1.37109,-0.45703 -3.25781,-0.95312 -4.02344,-1.20312c-0.48437,-0.16406 -0.72266,-0.49609 -0.72266,-0.90625c0,-0.58203 0.68359,-0.95312 1.48828,-0.99609c1.36719,0.04297 1.76953,0.82813 1.84766,1.41016h4.66797c0.03906,-3.3125 -2.65625,-5.54687 -6.51562,-5.54687c-2.85937,0 -4.78906,1.11719 -5.75391,2.73047c-1.04687,-1.69531 -3.13672,-2.73047 -5.75391,-2.73047c-2.77344,0 -4.66406,1.07422 -5.62891,2.60547c-1.125,-1.48828 -3.01953,-2.60547 -5.23047,-2.60547h-7.60156v2.69141c-1.08594,-1.65625 -3.14062,-2.69141 -5.75391,-2.69141c-3.98047,0 -6.375,2.20703 -6.39453,4.88281c-0.01562,2.13672 0.76172,3.0625 1.92969,4.13672c0.68359,0.58203 1.53125,1.07813 2.45313,1.36719c1.48828,0.57813 2.65625,0.91016 3.05859,1.11719c0.76562,0.33203 1.24609,0.53516 1.24609,1.23828c0,0.78906 -0.92578,1.11719 -1.80859,1.16016c-1.25,0 -2.44141,-0.57812 -2.40234,-1.90234l-4.93359,0.00781c0.23828,3.39063 3.43359,5.95313 7.25391,5.99219c2.05078,0 4.02344,-0.62109 5.35156,-1.86328v1.86328h4.86719z"></path></g></g></svg>